<svg xmlns="http://www.w3.org/2000/svg" width="26" height="26" viewBox="0 0 26 26">
  <g id="Group_2748" data-name="Group 2748" transform="translate(-36 -715)">
    <circle id="Ellipse_724" data-name="Ellipse 724" cx="13" cy="13" r="13" transform="translate(36 715)" fill="#f7282b"/>
    <g id="movie_creation-24px" transform="translate(41 720.767)">
      <path id="Path_3356" data-name="Path 3356" d="M0,0H15.233V15.233H0Z" fill="none"/>
      <path id="Path_3357" data-name="Path 3357" d="M12.156,4l1.269,2.539h-1.9L10.251,4H8.982l1.269,2.539h-1.9L7.078,4H5.808L7.078,6.539h-1.9L3.9,4H3.269A1.268,1.268,0,0,0,2.006,5.269L2,12.886a1.273,1.273,0,0,0,1.269,1.269H13.425a1.273,1.273,0,0,0,1.269-1.269V4Z" transform="translate(-0.731 -1.461)" fill="#fff"/>
    </g>
  </g>
</svg>
