<svg xmlns="http://www.w3.org/2000/svg" width="587" height="588" viewBox="0 0 587 588">
  <g id="love" transform="translate(-0.114 0.056)">
    <g id="Group_2318" data-name="Group 2318" transform="translate(0 0)">
      <ellipse id="Ellipse_647" data-name="Ellipse 647" cx="293.5" cy="294" rx="293.5" ry="294" transform="translate(0.114 -0.056)" fill="#eaeaea"/>
    </g>
    <g id="favorite-24px_1_" data-name="favorite-24px (1)" transform="translate(126.316 124.913)">
      <path id="Path_3352" data-name="Path 3352" d="M0,0H344.018V344.018H0Z" fill="none"/>
      <path id="Path_3353" data-name="Path 3353" d="M145.341,266.03l-20.784-18.921C50.736,180.169,2,136.02,2,81.837,2,37.688,36.688,3,80.837,3a85.838,85.838,0,0,1,64.5,29.958A85.838,85.838,0,0,1,209.844,3c44.149,0,78.837,34.688,78.837,78.837,0,54.183-48.736,98.332-122.556,165.415Z" transform="translate(26.668 40.002)"/>
    </g>
  </g>
</svg>
