<svg id="location_on-24px" xmlns="http://www.w3.org/2000/svg" width="13.264" height="12" viewBox="0 0 13.264 12">
  <path id="Path_230" data-name="Path 230" d="M8.869,2A3.7,3.7,0,0,0,5,5.5C5,8.125,8.869,12,8.869,12s3.869-3.875,3.869-6.5A3.7,3.7,0,0,0,8.869,2Zm0,4.75A1.321,1.321,0,0,1,7.487,5.5,1.321,1.321,0,0,1,8.869,4.25,1.321,1.321,0,0,1,10.25,5.5,1.321,1.321,0,0,1,8.869,6.75Z" transform="translate(-2.237 -1)"/>
  <path id="Path_231" data-name="Path 231" d="M0,0H13.264V12H0Z" fill="none"/>
</svg>
